<svg height="512" viewBox="0 0 256 256" width="512" xmlns="http://www.w3.org/2000/svg"><rect fill="#f8af23" height="18.667" rx="7.685" width="24.755" x="148.835" y="74.653"/><rect fill="#9e9e9e" height="10.667" rx="5.333" width="14" x="121" y="71.47"/><rect fill="#9e9e9e" height="10.667" rx="5.333" width="26" x="115" y="76.803"/><rect fill="#f8af23" height="18.667" rx="7.685" width="24.755" x="82.41" y="74.653"/><path d="m91.91 85.634v-3.3a7.683 7.683 0 0 1 7.628-7.682h-.058-9.38a7.685 7.685 0 0 0 -7.685 7.685v3.3a7.685 7.685 0 0 0 7.685 7.683h9.38.058a7.684 7.684 0 0 1 -7.628-7.686z" fill="#f87023"/><path d="m164.09 85.634v-3.3a7.683 7.683 0 0 0 -7.628-7.682h.058 9.38a7.685 7.685 0 0 1 7.685 7.685v3.3a7.685 7.685 0 0 1 -7.685 7.683h-9.38-.058a7.684 7.684 0 0 0 7.628-7.686z" fill="#f8d323"/><path d="m174.126 83.986h-92.252a21.994 21.994 0 0 0 -21.994 21.994v58.759c0 11.443 8.711 21.257 20.128 22.021a21.592 21.592 0 0 0 22.306-15.906l5.019-18.562h41.333l4.883 18.058a22.006 22.006 0 0 0 20.871 16.46 21.591 21.591 0 0 0 21.7-21.591v-59.239a21.994 21.994 0 0 0 -21.994-21.994z" fill="#63bce7"/><path d="m69.38 164.739v-58.759a21.994 21.994 0 0 1 21.994-21.994h-9.5a21.994 21.994 0 0 0 -21.994 21.994v58.759c0 11.443 8.711 21.257 20.128 22.021a21.623 21.623 0 0 0 6.239-.5 22.021 22.021 0 0 1 -16.867-21.521z" fill="#6377e7"/><path d="m186.62 164.739v-58.759a21.994 21.994 0 0 0 -21.994-21.994h9.5a21.994 21.994 0 0 1 21.994 21.994v58.759a21.545 21.545 0 0 1 -26.367 21.519 22.021 22.021 0 0 0 16.867-21.519z" fill="#63e2e7"/><path d="m59.88 107.135v36.454l7.175-8.418a8.363 8.363 0 0 1 11.756-.937 8.363 8.363 0 0 1 .937 11.756l-16.323 19.15s4.872 20.56-7.97 32.306h-36.3l3.219-44.166c.386-4.079 2.9-7.529 5.459-10.383z" fill="#f8af23"/><path d="m37.328 142.9 22.552-25.166v-10.6l-32.052 35.766c-2.558 2.854-5.073 6.3-5.459 10.383l-3.219 44.166h9.5l3.219-44.166c.386-4.083 2.902-7.533 5.459-10.383z" fill="#f87023"/><path d="m7.979 197.446h63.534v26.204h-63.534z" fill="#9e9e9e" transform="matrix(-1 0 0 -1 79.491 421.095)"/><path d="m7.979 197.445h9.5v26.204h-9.5z" fill="#707070"/><path d="m11.743 223.65h56.004v15.949h-56.004z" fill="#63bce7" transform="matrix(-1 0 0 -1 79.491 463.248)"/><path d="m11.743 223.65h9.5v15.949h-9.5z" fill="#6377e7"/><path d="m196.12 107.135v36.454l-7.175-8.418a8.363 8.363 0 0 0 -11.756-.937 8.363 8.363 0 0 0 -.937 11.756l16.323 19.15s-4.872 20.56 7.97 32.306h36.3l-3.219-44.166c-.386-4.079-2.9-7.529-5.459-10.383z" fill="#f8af23"/><path d="m233.631 153.28c-.386-4.079-2.9-7.529-5.459-10.383l-32.052-35.762v10.6l22.552 25.165c2.558 2.854 5.073 6.3 5.459 10.383l3.219 44.166h9.5z" fill="#f8d323"/><path d="m184.487 197.446h63.534v26.204h-63.534z" fill="#9e9e9e"/><path d="m238.521 197.445h9.5v26.204h-9.5z" fill="#cecece"/><path d="m188.252 223.65h56.004v15.949h-56.004z" fill="#63bce7"/><path d="m234.757 223.65h9.5v15.949h-9.5z" fill="#63e2e7"/><path d="m93.45 115.525h-2.77a1.191 1.191 0 0 1 -1.191-1.191v-2.77a1.191 1.191 0 0 0 -1.191-1.191h-7.313a1.191 1.191 0 0 0 -1.191 1.191v2.77a1.191 1.191 0 0 1 -1.191 1.191h-2.77a1.191 1.191 0 0 0 -1.191 1.191v7.313a1.191 1.191 0 0 0 1.191 1.191h2.767a1.191 1.191 0 0 1 1.191 1.191v2.77a1.191 1.191 0 0 0 1.191 1.191h7.318a1.191 1.191 0 0 0 1.191-1.191v-2.77a1.191 1.191 0 0 1 1.191-1.191h2.77a1.191 1.191 0 0 0 1.191-1.191v-7.312a1.191 1.191 0 0 0 -1.193-1.192z" fill="#f46275"/><circle cx="156.978" cy="120.372" fill="#f46275" r="4.708"/><circle cx="176.651" cy="120.372" fill="#f46275" r="4.708"/><circle cx="166.814" cy="110.536" fill="#f46275" r="4.708"/><circle cx="166.814" cy="130.209" fill="#f46275" r="4.708"/><rect fill="#f8af23" height="4.872" rx="2.436" width="11.667" x="110.167" y="125.5"/><rect fill="#f8af23" height="4.872" rx="2.436" width="11.667" x="134.167" y="125.5"/><path d="m128 83.986h-33.212l4.346 6.4a17.193 17.193 0 0 0 14.226 7.538h29.28a17.193 17.193 0 0 0 14.226-7.538l4.346-6.4z" fill="#9e9e9e"/><circle cx="36.494" cy="56.994" fill="#f46275" r="27.613"/><path d="m18.38 56.994a27.615 27.615 0 0 1 22.864-27.194 27.613 27.613 0 1 0 0 54.4 27.615 27.615 0 0 1 -22.864-27.206z" fill="#f43075"/><circle cx="128" cy="33.041" fill="#f8af23" r="27.613"/><path d="m109.887 33.041a27.615 27.615 0 0 1 22.863-27.2 27.613 27.613 0 1 0 0 54.4 27.615 27.615 0 0 1 -22.863-27.2z" fill="#f87023"/><circle cx="219.506" cy="56.994" fill="#f46275" r="27.613"/><path d="m219.506 29.381a27.76 27.76 0 0 0 -4.75.415 27.609 27.609 0 0 1 0 54.4 27.611 27.611 0 1 0 4.75-54.811z" fill="#f48875"/><path d="m140.062 33.027v8.279a2.272 2.272 0 0 1 -.726 1.678 2.375 2.375 0 0 1 -1.721.711h-7.283v5.832a2.283 2.283 0 0 1 -.711 1.693 2.319 2.319 0 0 1 -1.679.7 2.384 2.384 0 0 1 -1.735-.7 2.282 2.282 0 0 1 -.711-1.693v-5.888h-7.226a2.316 2.316 0 0 1 -1.678-.7 2.282 2.282 0 0 1 -.711-1.693 2.379 2.379 0 0 1 2.39-2.39h16.9v-3.439h-16.844a2.328 2.328 0 0 1 -1.692-.683 2.289 2.289 0 0 1 -.7-1.707v-8.25a2.38 2.38 0 0 1 2.39-2.39h7.175v-5.832a2.36 2.36 0 0 1 2.475-2.39 2.273 2.273 0 0 1 1.664.7 2.306 2.306 0 0 1 .7 1.693v5.832h7.34a2.377 2.377 0 0 1 1.721.711 2.275 2.275 0 0 1 .726 1.679 2.478 2.478 0 0 1 -2.447 2.447h-16.9v3.413h16.842a2.377 2.377 0 0 1 1.721.711 2.274 2.274 0 0 1 .72 1.676z" fill="#3f3679"/><path d="m26.646 36.578h19.695a0 0 0 0 1 0 0v21.989a8.25 8.25 0 0 1 -8.25 8.25h-3.191a8.25 8.25 0 0 1 -8.25-8.25v-21.989a0 0 0 0 1 -.004 0z" fill="#f8af23"/><path d="m228.183 75.939-8.677-3.854-8.677 3.854v-17.354h17.354z" fill="#f8af23"/><circle cx="219.506" cy="52.049" fill="#63bce7" r="14"/><g fill="#3f3679"><path d="m19.151 212.047h7.549a1.5 1.5 0 0 0 0-3h-7.549a1.5 1.5 0 1 0 0 3z"/><path d="m229.3 209.047a1.5 1.5 0 0 0 0 3h7.545a1.5 1.5 0 0 0 0-3z"/><path d="m248.021 195.946h-9.778l-3.12-42.808c-.444-4.689-3.352-8.472-5.835-11.242l-31.668-35.335v-.585a23.516 23.516 0 0 0 -22.53-23.466v-.172a9.2 9.2 0 0 0 -9.185-9.185h-9.385a9.2 9.2 0 0 0 -9.186 9.185v.148h-4.861c.006-.117.027-.232.027-.35a6.842 6.842 0 0 0 -6.168-6.8 6.878 6.878 0 0 0 -6.666-5.367h-3.333a6.865 6.865 0 0 0 -6.666 5.367 6.842 6.842 0 0 0 -6.168 6.8c0 .117.02.233.026.35h-4.861v-.148a9.2 9.2 0 0 0 -9.186-9.185h-9.378a9.2 9.2 0 0 0 -9.185 9.185v.172a23.516 23.516 0 0 0 -22.53 23.466v.585l-31.674 35.339c-2.483 2.771-5.391 6.553-5.838 11.275l-3.117 42.775h-9.777a1.5 1.5 0 0 0 -1.5 1.5v26.2a1.5 1.5 0 0 0 1.5 1.5h2.265v12.95h-.924a1.5 1.5 0 1 0 0 3h237.36a1.5 1.5 0 0 0 0-3h-.923v-12.95h2.265a1.5 1.5 0 0 0 1.5-1.5v-26.2a1.5 1.5 0 0 0 -1.501-1.504zm-20.966-52.046c2.177 2.429 4.721 5.706 5.08 9.491l3.1 42.557h-34.1c-11.5-11.069-7.149-30.267-7.1-30.462a1.5 1.5 0 0 0 -.318-1.318l-16.323-19.15a6.839 6.839 0 0 1 10.41-8.873l7.175 8.418 13.621 15.983a1.5 1.5 0 1 0 2.283-1.946l-13.263-15.564v-31.98zm-44.067 53.548v26.2a1.5 1.5 0 0 0 1.5 1.5h2.265v12.952h-117.505v-12.95h2.265a1.5 1.5 0 0 0 1.5-1.5v-26.2a1.5 1.5 0 0 0 -1.5-1.5h-12.573a30.241 30.241 0 0 0 6.333-14.437 22.786 22.786 0 0 0 14.635 6.747 23.17 23.17 0 0 0 23.854-17.012l4.719-17.454h39.037l4.583 16.95a23.5 23.5 0 0 0 22.312 17.568h.117a22.938 22.938 0 0 0 16.219-6.66 30.186 30.186 0 0 0 6.31 14.3h-12.572a1.5 1.5 0 0 0 -1.5 1.494zm-32.654-115.11a6.192 6.192 0 0 1 6.186-6.185h9.38a6.192 6.192 0 0 1 6.185 6.185v.148h-21.751zm8.047 3.148-2.756 4.062a15.679 15.679 0 0 1 -12.985 6.88h-29.28a15.678 15.678 0 0 1 -12.985-6.88l-2.756-4.062zm-32.048-12.516h3.333a3.85 3.85 0 0 1 3.51 2.333h-10.354a3.843 3.843 0 0 1 3.511-2.333zm-9.833 9.166a3.838 3.838 0 0 1 3.833-3.833h15.333a3.838 3.838 0 0 1 3.833 3.833c0 .118-.016.233-.027.35h-22.946c-.011-.116-.026-.232-.026-.35zm-26.4-5.983h9.38a6.192 6.192 0 0 1 6.186 6.185v.148h-21.756v-.148a6.192 6.192 0 0 1 6.19-6.185zm-28.72 29.823a20.513 20.513 0 0 1 20.49-20.49h12.123l3.9 5.747a18.675 18.675 0 0 0 15.467 8.2h29.28a18.676 18.676 0 0 0 15.467-8.2l3.9-5.747h12.122a20.513 20.513 0 0 1 20.49 20.49v33.54l-4.534-5.319a9.839 9.839 0 0 0 -14.976 12.765l15.844 18.588a47.47 47.47 0 0 0 -.686 12.154 20.048 20.048 0 0 1 -15.84 7.6 20.493 20.493 0 0 1 -19.427-15.347l-4.885-18.057a1.5 1.5 0 0 0 -1.448-1.108h-41.334a1.5 1.5 0 0 0 -1.448 1.108l-5.019 18.563a20.166 20.166 0 0 1 -20.758 14.8 19.9 19.9 0 0 1 -14.362-7.746 47.477 47.477 0 0 0 -.7-11.966l15.844-18.589a9.839 9.839 0 0 0 -14.976-12.762l-4.534 5.319v-33.54zm-37.518 47.445c.362-3.818 2.906-7.095 5.083-9.523l29.435-32.842v31.98l-13.266 15.564a1.5 1.5 0 0 0 2.283 1.946l13.625-15.984 7.175-8.418a6.839 6.839 0 0 1 10.41 8.873l-16.323 19.15a1.5 1.5 0 0 0 -.318 1.319c.046.195 4.424 19.37-7.1 30.461h-34.1zm-14.383 45.525h60.534v10.1h-35.142a1.5 1.5 0 0 0 0 3h35.142v10.1h-60.534zm3.764 39.154v-12.95h53v12.95zm229.514 0h-53v-12.95h53zm3.765-15.95h-60.535v-10.1h35.142a1.5 1.5 0 0 0 0-3h-35.142v-10.1h60.534z"/><path d="m75.832 126.72h2.461v2.461a2.694 2.694 0 0 0 2.691 2.691h7.316a2.694 2.694 0 0 0 2.691-2.691v-2.461h2.459a2.7 2.7 0 0 0 2.691-2.691v-7.312a2.694 2.694 0 0 0 -2.691-2.691h-2.462v-2.461a2.694 2.694 0 0 0 -2.691-2.691h-7.312a2.7 2.7 0 0 0 -2.691 2.691v2.461h-2.462a2.694 2.694 0 0 0 -2.691 2.691v7.313a2.694 2.694 0 0 0 2.691 2.69zm.309-9.695h2.459a2.694 2.694 0 0 0 2.691-2.691v-2.461h6.695v2.461a2.7 2.7 0 0 0 2.691 2.691h2.461v6.695h-2.458a2.694 2.694 0 0 0 -2.691 2.691v2.461h-6.696v-2.461a2.694 2.694 0 0 0 -2.693-2.691h-2.459z"/><path d="m156.978 126.581a6.208 6.208 0 1 0 -6.208-6.208 6.216 6.216 0 0 0 6.208 6.208zm0-9.417a3.208 3.208 0 1 1 -3.208 3.208 3.212 3.212 0 0 1 3.208-3.208z"/><path d="m170.442 120.372a6.208 6.208 0 1 0 6.208-6.208 6.215 6.215 0 0 0 -6.208 6.208zm6.208-3.208a3.208 3.208 0 1 1 -3.208 3.208 3.212 3.212 0 0 1 3.208-3.208z"/><path d="m166.814 116.744a6.208 6.208 0 1 0 -6.208-6.208 6.216 6.216 0 0 0 6.208 6.208zm0-9.417a3.208 3.208 0 1 1 -3.208 3.208 3.212 3.212 0 0 1 3.208-3.207z"/><path d="m166.814 124a6.208 6.208 0 1 0 6.208 6.208 6.215 6.215 0 0 0 -6.208-6.208zm0 9.417a3.208 3.208 0 1 1 3.208-3.208 3.211 3.211 0 0 1 -3.208 3.208z"/><path d="m112.6 131.872h6.8a3.936 3.936 0 1 0 0-7.872h-6.8a3.936 3.936 0 1 0 0 7.872zm0-4.872h6.8a.936.936 0 1 1 0 1.872h-6.8a.936.936 0 1 1 0-1.872z"/><path d="m136.6 131.872h6.8a3.936 3.936 0 1 0 0-7.872h-6.8a3.936 3.936 0 1 0 0 7.872zm0-4.872h6.8a.936.936 0 1 1 0 1.872h-6.8a.936.936 0 1 1 0-1.872z"/><path d="m36.494 86.107a29.113 29.113 0 1 0 -29.114-29.113 29.146 29.146 0 0 0 29.114 29.113zm0-55.227a26.113 26.113 0 1 1 -26.114 26.114 26.143 26.143 0 0 1 26.114-26.113z"/><path d="m128 62.155a29.113 29.113 0 1 0 -29.113-29.113 29.146 29.146 0 0 0 29.113 29.113zm0-55.227a26.113 26.113 0 1 1 -26.113 26.113 26.143 26.143 0 0 1 26.113-26.113z"/><path d="m219.506 86.107a29.113 29.113 0 1 0 -29.113-29.113 29.146 29.146 0 0 0 29.113 29.113zm0-55.227a26.113 26.113 0 1 1 -26.113 26.113 26.143 26.143 0 0 1 26.113-26.112z"/><path d="m19.909 55.126 5.238 2.407v1.034a9.761 9.761 0 0 0 9.75 9.75h.1v7.593h-8.027a1.5 1.5 0 1 0 0 3h19.048a1.5 1.5 0 1 0 0-3h-8.024v-7.594h.1a9.761 9.761 0 0 0 9.75-9.75v-1.033l5.238-2.407a4 4 0 0 0 2.318-3.626v-6.268a3.991 3.991 0 0 0 -3.987-3.986h-3.572v-4.667a1.5 1.5 0 0 0 -1.5-1.5h-19.695a1.5 1.5 0 0 0 -1.5 1.5v4.667h-3.572a3.991 3.991 0 0 0 -3.987 3.986v6.268a4 4 0 0 0 2.322 3.626zm31.5-10.88a.988.988 0 0 1 .987.986v6.268a.99.99 0 0 1 -.575.9l-3.985 1.831v-9.985zm-23.263-6.167h16.695v20.487a6.757 6.757 0 0 1 -6.75 6.75h-3.191a6.757 6.757 0 0 1 -6.75-6.75zm-7.56 7.153a.988.988 0 0 1 .987-.986h3.573v9.986l-3.984-1.832a.99.99 0 0 1 -.575-.9z"/><path d="m209.329 63.711v12.228a1.5 1.5 0 0 0 2.109 1.371l8.068-3.584 8.068 3.584a1.5 1.5 0 0 0 2.109-1.371v-12.228a15.5 15.5 0 1 0 -20.354 0zm17.354 9.92-6.568-2.917a1.5 1.5 0 0 0 -1.218 0l-6.568 2.917v-7.856a15.4 15.4 0 0 0 14.354 0zm-7.177-34.082a12.5 12.5 0 1 1 -12.5 12.5 12.514 12.514 0 0 1 12.5-12.5z"/><path d="m27.323 249.072h-18a1.5 1.5 0 1 0 0 3h18a1.5 1.5 0 0 0 0-3z"/><path d="m246.68 249.072h-18a1.5 1.5 0 0 0 0 3h18a1.5 1.5 0 1 0 0-3z"/><path d="m218.479 249.072h-180.958a1.5 1.5 0 0 0 0 3h180.958a1.5 1.5 0 0 0 0-3z"/></g></svg>